<svg width="10" height="12" viewBox="0 0 10 12" fill="none" xmlns="http://www.w3.org/2000/svg">
<path d="M9.93333 5.68333C9.89367 5.58104 9.8342 5.48759 9.75833 5.40833L5.59167 1.24167C5.51397 1.16397 5.42173 1.10233 5.32021 1.06028C5.21869 1.01823 5.10988 0.99659 5 0.99659C4.77808 0.99659 4.56525 1.08475 4.40833 1.24167C4.33063 1.31936 4.269 1.41161 4.22695 1.51313C4.1849 1.61464 4.16326 1.72345 4.16326 1.83333C4.16326 2.05525 4.25141 2.26808 4.40833 2.425L7.15833 5.16667H0.833333C0.612319 5.16667 0.400358 5.25446 0.244078 5.41074C0.0877975 5.56702 0 5.77899 0 6C0 6.22101 0.0877975 6.43297 0.244078 6.58926C0.400358 6.74554 0.612319 6.83333 0.833333 6.83333H7.15833L4.40833 9.575C4.33023 9.65247 4.26823 9.74464 4.22592 9.84619C4.18362 9.94773 4.16183 10.0567 4.16183 10.1667C4.16183 10.2767 4.18362 10.3856 4.22592 10.4871C4.26823 10.5887 4.33023 10.6809 4.40833 10.7583C4.4858 10.8364 4.57797 10.8984 4.67952 10.9407C4.78107 10.9831 4.88999 11.0048 5 11.0048C5.11001 11.0048 5.21893 10.9831 5.32048 10.9407C5.42203 10.8984 5.5142 10.8364 5.59167 10.7583L9.75833 6.59167C9.8342 6.51241 9.89367 6.41896 9.93333 6.31667C10.0167 6.11378 10.0167 5.88622 9.93333 5.68333Z" fill="white"/>
</svg>
