<svg width="116" height="60" viewBox="0 0 116 60" fill="none" xmlns="http://www.w3.org/2000/svg">
<g clip-path="url(#clip0)">
<path d="M112.207 39.7266C112.574 40.9598 112.613 42.2696 112.317 43.5225C112.175 44.0895 111.891 44.8508 111.362 45.1942C111.422 46.0845 111.34 46.9787 111.12 47.8429C110.967 48.6317 110.577 49.3532 110.002 49.9085L109.182 50.2759L108.627 50.4915L108.575 50.5115C108.469 50.5527 108.365 50.5933 108.258 50.6299H108.185H107.688L106.42 50.6486C106.42 50.8402 106.414 51.0319 106.401 51.2262C106.386 51.5691 106.342 51.9102 106.27 52.2457H106.883C107.1 52.2604 107.318 52.2604 107.535 52.2457L108.437 52.1286C108.766 52.0759 109.092 52.0057 109.413 51.9183L109.479 51.8624C109.638 51.7253 109.835 51.641 110.043 51.621C110.251 51.601 110.46 51.6462 110.642 51.7506C111.101 52.0378 111.459 52.4632 111.668 52.9671C111.789 53.2919 111.907 53.6166 112.025 53.9414C112.224 54.6922 112.3 55.471 112.249 56.2466C112.17 57.2528 111.628 59.4756 110.144 58.7861C109.701 58.5057 109.35 58.0979 109.137 57.6149C108.845 57.4365 108.545 57.2741 108.235 57.1171C108.002 56.9829 107.76 56.8655 107.511 56.7657L105.562 56.1268C104.634 55.9405 103.7 55.7888 102.771 55.6157C102.632 55.5891 102.492 55.5678 102.35 55.5492H102.285C102.177 55.5598 102.027 55.5838 101.914 55.5838H100.93L97.7734 55.6024C96.0399 55.6104 94.3038 55.5732 92.5704 55.5732C88.0697 55.5572 83.5663 55.5732 79.0656 55.5732H71.5872C70.1983 55.6557 68.8121 55.7435 67.4232 55.8234C63.4775 56.0443 59.5318 56.3078 55.5861 56.5927L41.2212 57.6575C38.9669 57.8305 36.7126 58.0461 34.4609 58.2378C33.5087 58.3203 32.5564 58.4294 31.6068 58.5253C30.5336 58.6317 29.4814 58.7276 28.4293 58.8473C26.0987 59.1189 23.7698 59.3851 21.4428 59.6459C20.8825 59.7098 20.3248 59.7817 19.7619 59.8296L19.6728 59.8374C18.1088 59.9735 16.4865 60.1148 14.9376 59.8536C13.9747 59.6936 13.0251 59.4604 12.0967 59.1561C11.8561 59.0833 11.6228 58.988 11.3997 58.8713L10.9472 58.6051C10.633 58.411 10.3471 58.1736 10.0976 57.8997C9.69388 57.5138 9.36472 57.0553 9.12694 56.5474C8.82259 55.9304 8.60733 55.2724 8.48774 54.5936C8.37625 54.4271 8.27521 54.2538 8.18524 54.0745C7.87618 53.4032 7.68481 52.6826 7.61969 51.9449C7.52674 51.1555 7.5866 50.3553 7.79593 49.5891C7.67576 49.4016 7.57022 49.2049 7.48028 49.0008C6.70528 47.3193 6.37794 45.462 6.53068 43.613L5.92041 43.6396C5.53374 43.6556 5.10497 43.6609 4.76038 43.6822C4.41579 43.7035 4.06068 43.7301 3.7082 43.7674C3.59952 43.7756 3.49145 43.7907 3.38465 43.8127L3.23209 43.8526C3.11779 43.8531 3.00361 43.8602 2.89013 43.8739L2.12729 43.7195C1.54355 43.3574 1.08429 42.822 0.812063 42.1862C0.187752 40.8942 -0.0846596 39.457 0.0229248 38.0229C0.0500725 37.2026 0.250065 36.3976 0.609517 35.6618C0.762084 34.7541 1.24083 33.4763 2.29301 33.9555C2.32983 33.9768 2.36403 34.0007 2.39822 34.0247H2.39823C2.63883 33.9145 2.89263 33.8367 3.15317 33.7931C3.55274 33.731 3.95631 33.699 4.36055 33.6973H6.07824C8.31238 33.7097 10.5456 33.6742 12.778 33.5908C15.3454 33.5003 17.9074 33.4124 20.4747 33.3592C21.4848 33.3379 22.4949 33.3033 23.505 33.3033H28.1504C30.5968 33.3086 33.0405 33.3672 35.4841 33.4178C40.0322 33.5083 44.5829 33.6494 49.131 33.7745C53.9622 33.9147 58.7935 34.0486 63.6248 34.1764C68.6911 34.3095 73.7573 34.4479 78.8236 34.5917L81.9959 34.7008L84.9947 34.6502C87.4199 34.6103 89.8452 34.5145 92.2705 34.4453C94.5827 34.3787 96.8922 34.2882 99.2018 34.2084C100.267 34.1738 101.343 34.1604 102.395 34.1365L104.368 34.0912C104.839 34.0806 105.31 34.1684 105.778 34.203C106.143 34.2363 106.51 34.2363 106.875 34.203C107.039 34.1742 107.205 34.16 107.372 34.1604C107.502 34.1716 107.63 34.2058 107.748 34.2616C107.933 34.3629 108.098 34.4983 108.235 34.6609C108.312 34.7231 108.38 34.7946 108.44 34.8738C108.741 35.2504 108.958 35.688 109.077 36.1569C109.113 36.282 109.142 36.4178 109.169 36.5482C109.426 36.5688 109.674 36.6529 109.892 36.7931L110.071 36.9022L110.597 37.2456C111.478 37.802 111.923 38.7496 112.207 39.7266Z" fill="#FCC260"/>
<path d="M116 3.769C115.929 3.20006 115.688 2.66676 115.308 2.24104L114.851 1.75923L114.782 1.69534C114.313 1.28218 113.78 0.949482 113.204 0.710419C112.71 0.512105 112.194 0.376205 111.668 0.305803L111.476 0.284508C111.247 0.26055 111.018 0.233931 110.789 0.223283L109.932 0.180692C109.732 0.180692 109.529 0.180692 109.327 0.180692H108.635C107.914 0.180692 107.188 0.199325 106.465 0.217959L105.978 0.225945C104.381 0.268536 102.63 0.414943 100.625 0.67049C99.2625 0.846179 97.9631 1.10439 96.5242 1.39986C96.0481 1.49836 95.5457 1.60483 95.0248 1.72196L94.846 1.70066L94.3541 1.65807C93.8184 1.65232 93.2997 1.84877 92.8994 2.2091C91.6657 2.50457 90.4321 2.79739 89.2168 3.11682C88.4119 3.32445 87.6122 3.55338 86.8152 3.77965C86.3908 3.90209 85.9673 4.02188 85.5447 4.13901L85.3868 4.19757C85.065 4.33582 84.7887 4.56395 84.5902 4.85527C84.3918 5.1466 84.2794 5.48907 84.2663 5.84266C84.0032 5.51257 83.7402 5.21177 83.4771 4.9509C83.1383 4.61376 82.7799 4.29732 82.4039 4.00325L82.2487 3.87814C81.9787 3.65759 81.6948 3.45487 81.3991 3.27121C80.0126 2.39391 78.4848 1.76954 76.8852 1.42648C75.6685 1.17125 74.4202 1.10661 73.1841 1.23482C72.9235 1.19027 72.6593 1.16978 72.395 1.1736C72.0591 1.19249 71.7277 1.26064 71.4112 1.37591L71.3428 1.3972C70.9838 1.52169 70.6458 1.70125 70.3406 1.92959C69.8269 2.13076 69.335 2.38499 68.8728 2.68825C68.304 3.07734 67.7753 3.52324 67.2945 4.01922C66.819 4.50038 66.4142 5.04812 66.0924 5.64567C65.8767 6.03698 65.6794 6.44426 65.4927 6.87017C65.4138 6.64656 65.3296 6.42562 65.2296 6.20468C65.0324 5.79297 64.8047 5.39698 64.5483 5.02011C64.3697 4.73894 64.17 4.47197 63.9512 4.22153C62.73 2.82215 61.1985 1.73565 59.4821 1.05115C57.9635 0.46531 56.3563 0.149219 54.7315 0.116805C53.5772 0.0929129 52.4236 0.194651 51.2908 0.420267C50.2722 0.602389 49.2675 0.856789 48.2842 1.18158H48.1501C47.8434 1.1782 47.5397 1.24268 47.2603 1.3705C46.9809 1.49833 46.7324 1.68642 46.5323 1.92161C45.8948 2.25174 45.2797 2.62434 44.691 3.03696C44.3043 3.30316 43.9019 3.61727 43.4547 3.98462C43.1256 4.24494 42.8153 4.52871 42.5261 4.83378C42.4288 4.94025 42.3367 5.05206 42.2447 5.1612C42.1526 5.27034 42.1053 5.32624 42.0316 5.4061L41.929 5.52322L41.8633 5.6643C41.8448 5.70157 41.8396 5.7415 41.8238 5.77877C41.6047 5.32528 41.3578 4.8861 41.0846 4.46377C40.6233 3.74367 40.0452 3.10743 39.3748 2.58177C38.9732 2.25597 38.5515 1.95634 38.1122 1.68469C37.6775 1.42851 37.2297 1.19571 36.7707 0.987262C36.5236 0.875018 36.2707 0.776382 36.0131 0.691786C35.5118 0.512152 34.9995 0.36544 34.4796 0.252564C33.7607 0.117692 33.0324 0.040257 32.3015 0.0209747C31.6834 -0.00564476 31.0652 -0.00830672 30.4602 0.0209747C29.1115 0.101986 27.7721 0.299692 26.4567 0.611927C25.2469 0.887243 24.0534 1.23118 22.8819 1.6421C21.6929 2.04672 20.5539 2.48594 19.4965 2.94379C17.2781 3.90083 15.1829 5.12722 13.257 6.59599C12.1362 7.48353 11.0681 8.43728 10.0584 9.45226C9.7585 9.74241 8.8431 10.6288 8.89308 11.88C8.91352 12.3149 9.03907 12.7381 9.25872 13.1124C9.51711 13.6287 9.87484 14.0876 10.3109 14.462C10.5691 14.712 10.8551 14.9309 11.1632 15.1142C11.6927 15.4563 12.2751 15.7064 12.8861 15.8542C13.2105 15.9404 13.5451 15.9807 13.8804 15.974H13.9646C14.1285 15.9577 14.2911 15.9301 14.4512 15.8915C15.1904 15.7744 15.9111 15.5907 16.6082 15.415L17.0449 15.3059L17.2316 15.2393C17.5461 15.1058 17.813 14.8788 17.9971 14.5884C18.1813 14.2979 18.2739 13.9578 18.2628 13.6129C18.2534 13.0711 18.0685 12.5474 17.7367 12.1222L17.9077 11.9758C18.8575 11.1937 19.8556 10.4735 20.8959 9.8196L20.3908 12.612C20.1672 13.8391 19.9884 15.0876 19.8121 16.2935L19.7253 16.9137C18.9332 16.8142 18.1342 16.7831 17.3369 16.8205C16.6905 16.8561 16.05 16.9641 15.4271 17.1426C14.9592 17.2667 14.5225 17.4899 14.1461 17.7975C13.6365 18.1542 13.2071 18.616 12.8861 19.1524C12.6885 19.5487 12.5595 19.9764 12.5047 20.4168C12.3679 21.4816 13.0492 22.4772 13.4517 22.9537C13.9916 23.623 14.64 24.1946 15.3693 24.644C15.7564 24.8782 16.1569 25.0888 16.5688 25.2749L16.6714 25.3148C17.0212 25.4319 17.3737 25.5464 17.7235 25.6582L17.9103 25.6981C18.1155 25.7221 18.3233 25.7407 18.5285 25.762C18.4837 26.1267 18.4364 26.4967 18.3917 26.8587L18.347 27.2181C18.2838 27.7505 18.2154 28.2829 18.147 28.7993L18.0602 29.534C17.9945 30.0664 17.8971 30.5668 17.7972 31.1152L17.784 31.195C17.7414 31.3861 17.6878 31.5746 17.6236 31.7594L17.5473 31.967C17.503 32.1113 17.4439 32.2504 17.3711 32.3823L17.1238 32.6006L16.8765 33.6068L16.9028 33.8011C16.9753 34.4428 17.2355 35.0481 17.6499 35.5393C18.3565 36.4344 19.2812 37.1279 20.3329 37.5518L21.2904 37.8659C21.5736 37.9427 21.8654 37.982 22.1585 37.983C22.5221 37.9826 22.8831 37.9205 23.2265 37.7993L23.408 37.7381L24.1182 37.1392L24.2155 36.9289C24.3582 36.6343 24.4337 36.3111 24.4364 35.983C24.4392 35.655 24.3691 35.3305 24.2313 35.0336C24.0485 33.6261 24.0485 32.2005 24.2313 30.7931L24.2655 30.4151C24.3234 29.8028 24.3812 29.1906 24.468 28.581L24.8968 25.4932C24.9494 25.1285 25.0125 24.7638 25.073 24.3991C26.6036 24.0379 28.1117 23.5855 29.5895 23.0442C31.0612 22.4875 32.4944 21.8321 33.8798 21.0823C33.8981 21.1366 33.9192 21.1899 33.9429 21.242C34.2625 21.8883 34.7102 22.461 35.2582 22.9244C35.8543 23.4557 36.5289 23.8895 37.2573 24.2101L37.3888 24.2713C37.5809 24.3592 37.7755 24.4443 37.9754 24.5136L38.1964 24.5881C38.5617 24.726 38.9385 24.8302 39.3222 24.8995C39.6142 24.9475 39.9246 24.9767 40.2219 25.0034L40.4691 25.0273C40.5428 25.0273 40.6191 25.0273 40.6927 25.0433L40.6611 25.2616C40.5577 25.9359 40.4577 26.6103 40.3613 27.2846V27.3592C40.3244 27.6254 40.2876 27.8916 40.2455 28.1418L40.093 29.0868C40.0134 29.4726 39.9833 29.8671 40.0035 30.2607C40.073 30.8616 40.3195 31.4274 40.7111 31.8845C41.5589 32.9172 42.7127 33.6461 44.0018 33.9635L44.7147 34.0593H44.8357H44.9251C45.2317 34.0627 45.5351 33.9963 45.8128 33.865C46.0906 33.7337 46.3356 33.5408 46.5297 33.3006C46.7447 33.0602 46.9117 32.78 47.0216 32.4754L47.1373 32.164C47.2084 31.9643 47.2715 31.762 47.3294 31.5571C47.4479 31.2748 47.5032 30.9694 47.4914 30.6629C47.4796 30.3564 47.4009 30.0563 47.261 29.7842C47.191 29.6208 47.1084 29.4632 47.0137 29.313L47.1584 28.3015C47.2005 27.9927 47.2662 27.6866 47.332 27.3831C47.3688 27.2128 47.4056 27.0451 47.4398 26.8747L47.6845 25.6209C48.0738 25.7061 48.4736 25.794 48.8366 25.8871C49.2706 26.0495 49.7047 26.2358 50.1071 26.4195C50.5543 26.6857 50.9988 26.9519 51.4223 27.2607C52.1142 27.809 52.7981 28.416 53.4583 29.0016L54.229 29.6804C54.8051 30.1888 55.3812 30.6946 55.9625 31.2323C56.5301 31.7403 57.1727 32.1552 57.867 32.4621L58.8271 32.7762C59.1094 32.8529 59.4003 32.8922 59.6925 32.8934C60.0506 32.8912 60.406 32.8301 60.7447 32.7124L60.842 32.6724C61.1907 32.5248 61.486 32.2721 61.6879 31.9488C61.8898 31.6254 61.9884 31.247 61.9705 30.865L61.7864 30.0398L61.7101 29.8321C61.4142 29.2376 61.0015 28.7105 60.4974 28.2829C59.9713 27.7878 59.4453 27.3059 58.9034 26.8268L58.3405 26.313C57.6039 25.6422 56.8148 24.9475 56.0257 24.2873C55.3312 23.707 54.5973 23.1773 53.9634 22.7247C53.4551 22.3632 52.9283 22.0291 52.3851 21.7238C51.8827 21.4417 51.4118 21.1914 50.9646 20.9652C51.7669 20.7283 52.5429 20.4834 53.2716 20.2225C55.5524 19.4396 57.7544 18.4387 59.8477 17.2331C60.9397 16.6072 61.9672 15.8724 62.9148 15.0397C62.9569 15.0024 62.9937 14.9625 63.0332 14.9252C62.7488 16.2249 62.5546 17.5431 62.4519 18.8702C62.356 20.2548 62.4445 21.6462 62.7149 23.0069C62.8539 23.7589 63.0626 24.496 63.3383 25.2083C64.0305 26.9872 65.2185 28.5242 66.7579 29.6325C67.6468 30.3123 68.6429 30.8352 69.704 31.1791C70.4595 31.4249 71.2444 31.5664 72.0373 31.5997C72.1688 31.5997 72.3003 31.5997 72.4266 31.5997C73.1142 31.5828 73.7975 31.4845 74.4625 31.3068C75.7277 30.9733 76.9086 30.3718 77.9269 29.542C79.805 28.0779 81.4648 26.0814 83.0036 23.4035C83.6081 22.3576 84.1535 21.2777 84.6372 20.1693C84.879 20.5184 85.1646 20.8342 85.4868 21.1089C85.8546 21.4247 86.2529 21.702 86.6758 21.9368L86.5548 22.3654C86.3969 22.9217 86.2733 23.4834 86.1523 24.0238L85.4868 26.872C85.4368 27.0903 85.4 27.3139 85.3632 27.5349L85.1001 29.0708C85.0212 29.5154 84.9581 29.9679 84.895 30.4018L84.7713 31.2616C84.6793 31.8898 84.5846 32.518 84.5083 33.1489V33.2687L84.5241 33.3858C84.5787 33.8787 84.7806 34.343 85.1028 34.7168C85.4232 35.115 85.8073 35.456 86.2391 35.7257C86.6739 36.0043 87.1512 36.2085 87.6517 36.3299L88.3251 36.4045H88.4013C88.6723 36.4072 88.9402 36.3466 89.1843 36.2275C89.4284 36.1084 89.642 35.9339 89.8086 35.7177L89.9454 35.5447L90.0033 35.3317C90.3952 33.8463 90.8266 32.2545 91.3185 30.6893C91.7157 29.4408 92.1576 28.1737 92.5864 26.9625L92.9336 25.9723C93.4808 24.3964 94.0437 22.8232 94.604 21.25V21.2287L98.9469 19.9776C99.0758 19.9403 99.2099 19.9164 99.3441 19.8898L103.637 18.982C104.218 18.8676 104.797 18.7531 105.381 18.6679H105.455C106.361 18.5029 107.282 18.4306 108.203 18.4523C108.516 18.4685 108.829 18.4083 109.114 18.2767C109.399 18.1451 109.649 17.9461 109.842 17.6963L109.971 17.4887C110.109 17.2091 110.179 16.9002 110.176 16.5877C110.172 16.2751 110.095 15.968 109.95 15.6919C109.682 15.1516 109.304 14.6752 108.84 14.2943L108.151 13.7779C107.633 13.446 107.064 13.2031 106.467 13.0592L106.367 13.0406C105.271 12.8879 104.162 12.8478 103.058 12.9208C102.119 12.982 101.199 13.0911 100.307 13.187C99.2941 13.3068 98.2866 13.4691 97.2923 13.6368C97.9938 11.6493 98.6891 9.66078 99.3783 7.67141C100.404 7.41587 101.43 7.17807 102.456 6.95801C104.082 6.63592 105.776 6.36972 107.633 6.15943C108.274 6.08223 108.916 6.02101 109.558 5.95978L110.084 5.9092C110.679 5.85064 111.268 5.7974 111.86 5.74949L112.075 5.73085C112.26 5.71488 112.444 5.69891 112.628 5.69092L112.959 5.66963C113.18 5.65366 113.404 5.63768 113.627 5.63768C114.396 5.73085 115.003 5.58977 115.435 5.21444C115.615 5.05186 115.759 4.85201 115.856 4.62837C115.954 4.40473 116.003 4.16251 116 3.91807V3.84353V3.769ZM42.5893 10.7726C42.6995 10.0867 42.7119 9.38837 42.6261 8.69893C43.0234 9.12079 43.4725 9.48937 43.9624 9.79565C44.015 9.83025 44.0676 9.85687 44.1202 9.88882L42.6103 15.5481C42.4472 16.1524 42.3052 16.7646 42.1737 17.3742L41.4555 17.5233C40.7322 17.6644 39.9693 17.7895 39.125 17.896C38.9171 17.9226 38.7146 17.9385 38.5094 17.9598C39.5795 17.0029 40.5032 15.8905 41.2504 14.659C41.9326 13.4595 42.3868 12.1413 42.5893 10.7726ZM87.6911 9.85687L88.6565 10.1736C88.9438 10.2522 89.2401 10.2925 89.5377 10.2934C89.7275 10.2924 89.9168 10.2737 90.1033 10.2375C89.8534 11.0361 89.6035 11.8347 89.3588 12.6333L88.6276 14.9838C88.5618 15.2021 88.5013 15.4203 88.4408 15.6413L88.2672 15.6839C87.4781 15.8835 86.7205 16.1258 85.9734 16.3653C86.0024 16.2535 86.0366 16.1417 86.0629 16.0299C86.4048 14.6164 86.7047 13.1018 86.589 11.5525C86.5137 10.7916 86.3719 10.0389 86.1655 9.30319C86.1234 9.14879 86.0708 9.00239 86.0208 8.85332C86.5303 9.26253 87.0922 9.60011 87.6911 9.85687ZM79.976 10.368C79.9411 10.9619 79.8593 11.5521 79.7314 12.1328C79.2684 14.0814 78.4451 16.0565 77.0562 18.5215C76.0165 20.4438 74.7109 22.2061 73.1789 23.7549C72.3198 24.5815 71.2915 25.2067 70.167 25.5863C69.872 25.632 69.5735 25.6498 69.2753 25.6396C69.2148 25.5517 69.1543 25.4585 69.099 25.3734C68.846 24.8528 68.6451 24.308 68.4993 23.7469C68.2949 22.7099 68.2206 21.651 68.2783 20.5952C68.3484 19.4666 68.5049 18.3452 68.7466 17.2411C69.5357 13.7433 70.8904 10.7912 72.6607 8.6377C73.041 8.87378 73.4529 9.05309 73.8838 9.17009L74.623 9.26326C74.9308 9.28234 75.2382 9.21996 75.515 9.08226C75.7917 8.94457 76.0282 8.73631 76.2013 8.47798L76.296 8.34489L76.346 8.19049L76.5669 7.53033C76.6248 7.35997 76.6853 7.18694 76.7405 7.01657C76.9404 7.01657 77.1404 7.01657 77.3376 7.04053C77.7915 7.11443 78.2398 7.22028 78.6792 7.3573C78.8502 7.42651 79.0159 7.50371 79.1816 7.58357L79.2605 7.63947L79.4236 7.80185C79.4894 7.89235 79.5551 7.98552 79.6182 8.08135C79.7165 8.30594 79.7991 8.53721 79.8655 8.77346C79.9603 9.29922 79.9973 9.83397 79.976 10.368ZM51.6328 11.5605C52.1036 9.98997 52.6008 8.42741 53.0953 6.86484C53.8402 6.57259 54.6062 6.33855 55.3865 6.16475C56.3814 5.95298 57.398 5.8636 58.4141 5.89856C58.6772 5.94115 58.9402 5.99439 59.2032 6.05827H59.2164L59.2874 6.15144C59.3905 6.34103 59.4785 6.53864 59.5505 6.74239C59.6185 7.1844 59.6078 7.63517 59.5189 8.07337C59.2111 9.07426 58.4878 10.0618 57.3409 11.0627C56.7257 11.5419 56.0818 11.982 55.4128 12.3804C54.5158 12.9128 53.7187 13.3653 52.9691 13.7327C52.2194 14.1 51.4618 14.4434 50.6806 14.7735L51.6328 11.5605ZM26.3804 16.6555C26.4461 16.2935 26.5119 15.9341 26.575 15.5747C26.6802 14.9811 26.8013 14.3928 26.9223 13.8045L27.1853 12.5055C27.4247 11.2943 27.6719 10.0432 27.956 8.84001C28.0297 8.54187 28.1086 8.24639 28.1875 7.95358C28.2664 7.66077 28.3085 7.42119 28.3559 7.17097V7.14435C28.3822 7.06715 28.4085 6.98995 28.44 6.91276L28.5058 6.83556L28.5742 6.56937C28.6047 6.47559 28.6276 6.37944 28.6426 6.28188C29.4528 6.01568 30.1814 5.80805 30.8548 5.65898C32.1813 5.40341 33.5349 5.32199 34.882 5.41674C35.0609 5.4407 35.2292 5.46998 35.3871 5.50193C35.4372 5.62196 35.4811 5.74458 35.5186 5.86927C35.6655 6.65043 35.6548 7.45358 35.487 8.23042C34.9609 10.0379 33.793 11.7548 32.0122 13.3121C31.2271 13.9293 30.397 14.4854 29.529 14.9758C28.3532 15.6626 27.3721 16.1843 26.4435 16.6235L26.3804 16.6555Z" fill="#010D17"/>
<path d="M23.8418 46.4772C23.8418 43.6635 26.0803 41.3796 29.1027 41.3796C32.1251 41.3796 34.3242 43.6262 34.3242 46.4772C34.3242 49.3281 32.083 51.5775 29.0633 51.5775C26.0435 51.5775 23.8418 49.3308 23.8418 46.4772ZM31.6069 46.4772C31.6069 45.0344 30.5758 43.7726 29.0606 43.7726C27.4824 43.7726 26.5485 44.9971 26.5485 46.4772C26.5485 47.9572 27.5797 49.1844 29.0948 49.1844C30.6678 49.1844 31.6069 47.9599 31.6069 46.4772Z" fill="#010D17"/>
<path d="M40.1847 50.0789V51.362H37.4385V38.0176H40.1847V42.9688C40.515 42.4687 40.9641 42.0604 41.4908 41.7814C42.0174 41.5024 42.6048 41.3615 43.1992 41.3717C45.4561 41.3717 47.6052 43.1632 47.6052 46.4693C47.6052 49.7754 45.5008 51.527 43.1992 51.527C42.6199 51.5403 42.0456 51.4163 41.5222 51.1648C40.9988 50.9134 40.5407 50.5415 40.1847 50.0789ZM44.8616 46.4427C44.8616 44.8162 43.7779 43.7381 42.4942 43.7381C41.2106 43.7381 40.1479 44.8029 40.1479 46.4773C40.1479 48.1516 41.2132 49.1845 42.4942 49.1845C43.7753 49.1845 44.8616 48.1224 44.8616 46.4427Z" fill="#010D17"/>
<path d="M50.8198 38.0176H53.7133V40.4826H50.8198V38.0176ZM50.8935 41.5633H53.637V51.362H50.8935V41.5633Z" fill="#010D17"/>
<path d="M56.4912 41.5634H59.3847L61.5522 48.1225L63.7381 41.5634H66.5922L62.7806 51.4313H60.287L56.4912 41.5634Z" fill="#010D17"/>
<path d="M69.3301 38.0176H72.071V45.125L75.2854 41.5633H78.5709L74.8882 45.4178L78.7024 51.362H75.5616L73.0338 47.369L72.071 48.3806V51.362H69.3301V38.0176Z" fill="#010D17"/>
<path d="M80.3994 48.5083C80.3994 46.3788 82.0066 45.3806 84.303 45.3806C85.1096 45.3731 85.911 45.5101 86.6704 45.7852V45.6201C86.6704 44.4675 85.9655 43.8286 84.5924 43.8286C83.6759 43.8299 82.7684 44.0107 81.9198 44.361L81.2333 42.2315C82.4102 41.6845 83.6948 41.4159 84.9896 41.4462C86.4889 41.4462 87.5727 41.8482 88.2592 42.5403C88.9826 43.2723 89.3114 44.3504 89.3114 45.668V51.362H86.6494V50.2972C86.2827 50.71 85.8302 51.0355 85.3245 51.2504C84.8188 51.4654 84.2723 51.5643 83.7243 51.5403C81.8988 51.5403 80.3994 50.4808 80.3994 48.5083ZM86.7125 47.9041V47.4116C86.1611 47.1643 85.5638 47.0391 84.9606 47.0443C83.7848 47.0443 83.0641 47.5208 83.0641 48.4338C83.0641 49.1845 83.677 49.621 84.5634 49.621C85.8366 49.621 86.7046 48.9103 86.7046 47.9014L86.7125 47.9041Z" fill="#010D17"/>
</g>
<defs>
<clipPath id="clip0">
<rect width="116" height="60" fill="white"/>
</clipPath>
</defs>
</svg>
