<svg width="197" height="44" viewBox="0 0 197 44" fill="none" xmlns="http://www.w3.org/2000/svg">
<g clip-path="url(#clip0_14_116)">
<path d="M5.81216 0.0281525H0V44H5.81216V24.8752H22.8204V44H28.6631V0.0281525H22.7898V18.6022H5.81216V0.0281525ZM38.2379 37.6658V6.3929H46.8644C56.1639 6.3929 60.8748 14.257 60.8748 22.06C60.8748 29.8629 56.1639 37.6658 46.8644 37.6658H38.2379ZM32.4564 0.0281525V44H46.8644C60.0182 44 66.6258 33.0453 66.6258 22.0294C66.6258 17.6536 65.5857 13.2472 63.475 9.57528L62.5878 19.8568L61.4866 7.43329L51.7283 6.0563L59.8041 4.92411C56.6227 1.92534 52.2789 0.0587494 46.8644 0.0587494L32.4564 0.0281525Z" fill="#111111"/>
<path d="M78.64 31.18C77.08 31.18 75.604 30.964 74.212 30.532C72.82 30.076 71.728 29.512 70.936 28.84L72.088 26.824C72.856 27.4 73.84 27.904 75.04 28.336C76.24 28.744 77.5 28.948 78.82 28.948C80.62 28.948 81.916 28.672 82.708 28.12C83.5 27.544 83.896 26.788 83.896 25.852C83.896 25.156 83.668 24.616 83.212 24.232C82.78 23.824 82.204 23.524 81.484 23.332C80.764 23.116 79.96 22.936 79.072 22.792C78.184 22.648 77.296 22.48 76.408 22.288C75.544 22.096 74.752 21.82 74.032 21.46C73.312 21.076 72.724 20.56 72.268 19.912C71.836 19.264 71.62 18.4 71.62 17.32C71.62 16.288 71.908 15.364 72.484 14.548C73.06 13.732 73.9 13.096 75.004 12.64C76.132 12.16 77.5 11.92 79.108 11.92C80.332 11.92 81.556 12.088 82.78 12.424C84.004 12.736 85.012 13.156 85.804 13.684L84.688 15.736C83.848 15.16 82.948 14.752 81.988 14.512C81.028 14.248 80.068 14.116 79.108 14.116C77.404 14.116 76.144 14.416 75.328 15.016C74.536 15.592 74.14 16.336 74.14 17.248C74.14 17.968 74.356 18.532 74.788 18.94C75.244 19.348 75.832 19.672 76.552 19.912C77.296 20.128 78.1 20.308 78.964 20.452C79.852 20.596 80.728 20.776 81.592 20.992C82.48 21.184 83.284 21.46 84.004 21.82C84.748 22.156 85.336 22.648 85.768 23.296C86.224 23.92 86.452 24.748 86.452 25.78C86.452 26.884 86.14 27.844 85.516 28.66C84.916 29.452 84.028 30.076 82.852 30.532C81.7 30.964 80.296 31.18 78.64 31.18ZM99.1701 31.18C97.2021 31.18 95.4741 30.772 93.9861 29.956C92.4981 29.116 91.3341 27.976 90.4941 26.536C89.6541 25.072 89.2341 23.404 89.2341 21.532C89.2341 19.66 89.6301 18.004 90.4221 16.564C91.2381 15.124 92.3421 13.996 93.7341 13.18C95.1501 12.34 96.7341 11.92 98.4861 11.92C100.262 11.92 101.834 12.328 103.202 13.144C104.594 13.936 105.686 15.064 106.478 16.528C107.27 17.968 107.666 19.636 107.666 21.532C107.666 21.652 107.654 21.784 107.63 21.928C107.63 22.048 107.63 22.18 107.63 22.324H91.1781V20.416H106.262L105.254 21.172C105.254 19.804 104.954 18.592 104.354 17.536C103.778 16.456 102.986 15.616 101.978 15.016C100.97 14.416 99.8061 14.116 98.4861 14.116C97.1901 14.116 96.0261 14.416 94.9941 15.016C93.9621 15.616 93.1581 16.456 92.5821 17.536C92.0061 18.616 91.7181 19.852 91.7181 21.244V21.64C91.7181 23.08 92.0301 24.352 92.6541 25.456C93.3021 26.536 94.1901 27.388 95.3181 28.012C96.4701 28.612 97.7781 28.912 99.2421 28.912C100.394 28.912 101.462 28.708 102.446 28.3C103.454 27.892 104.318 27.268 105.038 26.428L106.478 28.084C105.638 29.092 104.582 29.86 103.31 30.388C102.062 30.916 100.682 31.18 99.1701 31.18ZM112.869 31V12.1H115.317V17.248L115.065 16.348C115.593 14.908 116.481 13.816 117.729 13.072C118.977 12.304 120.525 11.92 122.373 11.92V14.404C122.277 14.404 122.181 14.404 122.085 14.404C121.989 14.38 121.893 14.368 121.797 14.368C119.805 14.368 118.245 14.98 117.117 16.204C115.989 17.404 115.425 19.12 115.425 21.352V31H112.869ZM132.705 31L124.317 12.1H126.981L134.685 29.632H133.425L141.237 12.1H143.757L135.333 31H132.705ZM147.357 31V12.1H149.913V31H147.357ZM148.653 7.924C148.125 7.924 147.681 7.744 147.321 7.384C146.961 7.024 146.781 6.592 146.781 6.088C146.781 5.584 146.961 5.164 147.321 4.828C147.681 4.468 148.125 4.288 148.653 4.288C149.181 4.288 149.625 4.456 149.985 4.792C150.345 5.128 150.525 5.548 150.525 6.052C150.525 6.58 150.345 7.024 149.985 7.384C149.649 7.744 149.205 7.924 148.653 7.924ZM164.873 31.18C163.001 31.18 161.321 30.772 159.833 29.956C158.369 29.116 157.217 27.976 156.377 26.536C155.537 25.072 155.117 23.404 155.117 21.532C155.117 19.636 155.537 17.968 156.377 16.528C157.217 15.088 158.369 13.96 159.833 13.144C161.321 12.328 163.001 11.92 164.873 11.92C166.481 11.92 167.933 12.232 169.229 12.856C170.525 13.48 171.545 14.416 172.289 15.664L170.381 16.96C169.733 16 168.929 15.292 167.969 14.836C167.009 14.38 165.965 14.152 164.837 14.152C163.493 14.152 162.281 14.464 161.201 15.088C160.121 15.688 159.269 16.54 158.645 17.644C158.021 18.748 157.709 20.044 157.709 21.532C157.709 23.02 158.021 24.316 158.645 25.42C159.269 26.524 160.121 27.388 161.201 28.012C162.281 28.612 163.493 28.912 164.837 28.912C165.965 28.912 167.009 28.684 167.969 28.228C168.929 27.772 169.733 27.076 170.381 26.14L172.289 27.436C171.545 28.66 170.525 29.596 169.229 30.244C167.933 30.868 166.481 31.18 164.873 31.18ZM185.022 31.18C183.054 31.18 181.326 30.772 179.838 29.956C178.35 29.116 177.186 27.976 176.346 26.536C175.506 25.072 175.086 23.404 175.086 21.532C175.086 19.66 175.482 18.004 176.274 16.564C177.09 15.124 178.194 13.996 179.586 13.18C181.002 12.34 182.586 11.92 184.338 11.92C186.114 11.92 187.686 12.328 189.054 13.144C190.446 13.936 191.538 15.064 192.33 16.528C193.122 17.968 193.518 19.636 193.518 21.532C193.518 21.652 193.506 21.784 193.482 21.928C193.482 22.048 193.482 22.18 193.482 22.324H177.03V20.416H192.114L191.106 21.172C191.106 19.804 190.806 18.592 190.206 17.536C189.63 16.456 188.838 15.616 187.83 15.016C186.822 14.416 185.658 14.116 184.338 14.116C183.042 14.116 181.878 14.416 180.846 15.016C179.814 15.616 179.01 16.456 178.434 17.536C177.858 18.616 177.57 19.852 177.57 21.244V21.64C177.57 23.08 177.882 24.352 178.506 25.456C179.154 26.536 180.042 27.388 181.17 28.012C182.322 28.612 183.63 28.912 185.094 28.912C186.246 28.912 187.314 28.708 188.298 28.3C189.306 27.892 190.17 27.268 190.89 26.428L192.33 28.084C191.49 29.092 190.434 29.86 189.162 30.388C187.914 30.916 186.534 31.18 185.022 31.18Z" fill="#3F47C1"/>
<path d="M74.13 43.12C73.57 43.12 73.0333 43.0467 72.52 42.9C72.0067 42.7467 71.5933 42.55 71.28 42.31L71.83 41.09C72.13 41.3033 72.4833 41.48 72.89 41.62C73.3033 41.7533 73.72 41.82 74.14 41.82C74.46 41.82 74.7167 41.79 74.91 41.73C75.11 41.6633 75.2567 41.5733 75.35 41.46C75.4433 41.3467 75.49 41.2167 75.49 41.07C75.49 40.8833 75.4167 40.7367 75.27 40.63C75.1233 40.5167 74.93 40.4267 74.69 40.36C74.45 40.2867 74.1833 40.22 73.89 40.16C73.6033 40.0933 73.3133 40.0133 73.02 39.92C72.7333 39.8267 72.47 39.7067 72.23 39.56C71.99 39.4133 71.7933 39.22 71.64 38.98C71.4933 38.74 71.42 38.4333 71.42 38.06C71.42 37.66 71.5267 37.2967 71.74 36.97C71.96 36.6367 72.2867 36.3733 72.72 36.18C73.16 35.98 73.71 35.88 74.37 35.88C74.81 35.88 75.2433 35.9333 75.67 36.04C76.0967 36.14 76.4733 36.2933 76.8 36.5L76.3 37.73C75.9733 37.5433 75.6467 37.4067 75.32 37.32C74.9933 37.2267 74.6733 37.18 74.36 37.18C74.0467 37.18 73.79 37.2167 73.59 37.29C73.39 37.3633 73.2467 37.46 73.16 37.58C73.0733 37.6933 73.03 37.8267 73.03 37.98C73.03 38.16 73.1033 38.3067 73.25 38.42C73.3967 38.5267 73.59 38.6133 73.83 38.68C74.07 38.7467 74.3333 38.8133 74.62 38.88C74.9133 38.9467 75.2033 39.0233 75.49 39.11C75.7833 39.1967 76.05 39.3133 76.29 39.46C76.53 39.6067 76.7233 39.8 76.87 40.04C77.0233 40.28 77.1 40.5833 77.1 40.95C77.1 41.3433 76.99 41.7033 76.77 42.03C76.55 42.3567 76.22 42.62 75.78 42.82C75.3467 43.02 74.7967 43.12 74.13 43.12ZM79.887 43L83.007 36H84.607L87.737 43H86.037L83.477 36.82H84.117L81.547 43H79.887ZM81.447 41.5L81.877 40.27H85.477L85.917 41.5H81.447ZM92.7823 43L89.7623 36H91.5123L94.1523 42.2H93.1223L95.8023 36H97.4123L94.3823 43H92.7823ZM102.087 38.82H105.457V40.08H102.087V38.82ZM102.207 41.7H106.017V43H100.597V36H105.887V37.3H102.207V41.7ZM117.078 43V40.14L117.448 41.12L114.368 36H116.088L118.448 39.93H117.458L119.828 36H121.418L118.338 41.12L118.698 40.14V43H117.078ZM127.793 43.12C127.24 43.12 126.726 43.03 126.253 42.85C125.786 42.67 125.38 42.4167 125.033 42.09C124.693 41.7633 124.426 41.38 124.233 40.94C124.046 40.5 123.953 40.02 123.953 39.5C123.953 38.98 124.046 38.5 124.233 38.06C124.426 37.62 124.696 37.2367 125.043 36.91C125.39 36.5833 125.796 36.33 126.263 36.15C126.73 35.97 127.236 35.88 127.783 35.88C128.336 35.88 128.843 35.97 129.303 36.15C129.77 36.33 130.173 36.5833 130.513 36.91C130.86 37.2367 131.13 37.62 131.323 38.06C131.516 38.4933 131.613 38.9733 131.613 39.5C131.613 40.02 131.516 40.5033 131.323 40.95C131.13 41.39 130.86 41.7733 130.513 42.1C130.173 42.42 129.77 42.67 129.303 42.85C128.843 43.03 128.34 43.12 127.793 43.12ZM127.783 41.74C128.096 41.74 128.383 41.6867 128.643 41.58C128.91 41.4733 129.143 41.32 129.343 41.12C129.543 40.92 129.696 40.6833 129.803 40.41C129.916 40.1367 129.973 39.8333 129.973 39.5C129.973 39.1667 129.916 38.8633 129.803 38.59C129.696 38.3167 129.543 38.08 129.343 37.88C129.15 37.68 128.92 37.5267 128.653 37.42C128.386 37.3133 128.096 37.26 127.783 37.26C127.47 37.26 127.18 37.3133 126.913 37.42C126.653 37.5267 126.423 37.68 126.223 37.88C126.023 38.08 125.866 38.3167 125.753 38.59C125.646 38.8633 125.593 39.1667 125.593 39.5C125.593 39.8267 125.646 40.13 125.753 40.41C125.866 40.6833 126.02 40.92 126.213 41.12C126.413 41.32 126.646 41.4733 126.913 41.58C127.18 41.6867 127.47 41.74 127.783 41.74ZM138.54 43.12C137.547 43.12 136.77 42.8433 136.21 42.29C135.65 41.7367 135.37 40.9467 135.37 39.92V36H136.99V39.86C136.99 40.5267 137.127 41.0067 137.4 41.3C137.674 41.5933 138.057 41.74 138.55 41.74C139.044 41.74 139.427 41.5933 139.7 41.3C139.974 41.0067 140.11 40.5267 140.11 39.86V36H141.71V39.92C141.71 40.9467 141.43 41.7367 140.87 42.29C140.31 42.8433 139.534 43.12 138.54 43.12ZM145.911 43V36H148.941C149.568 36 150.108 36.1033 150.561 36.31C151.015 36.51 151.365 36.8 151.611 37.18C151.858 37.56 151.981 38.0133 151.981 38.54C151.981 39.06 151.858 39.51 151.611 39.89C151.365 40.2633 151.015 40.55 150.561 40.75C150.108 40.95 149.568 41.05 148.941 41.05H146.811L147.531 40.34V43H145.911ZM150.361 43L148.611 40.46H150.341L152.111 43H150.361ZM147.531 40.52L146.811 39.76H148.851C149.351 39.76 149.725 39.6533 149.971 39.44C150.218 39.22 150.341 38.92 150.341 38.54C150.341 38.1533 150.218 37.8533 149.971 37.64C149.725 37.4267 149.351 37.32 148.851 37.32H146.811L147.531 36.55V40.52ZM162.747 43V37.32H160.507V36H166.607V37.32H164.367V43H162.747ZM170.078 43V36H171.698V43H170.078ZM175.96 43V36H177.3L180.28 40.94H179.57L182.5 36H183.83L183.85 43H182.33L182.32 38.33H182.6L180.26 42.26H179.53L177.14 38.33H177.48V43H175.96ZM189.6 38.82H192.97V40.08H189.6V38.82ZM189.72 41.7H193.53V43H188.11V36H193.4V37.3H189.72V41.7Z" fill="black"/>
</g>
<defs>
<clipPath id="clip0_14_116">
<rect width="197" height="44" fill="white"/>
</clipPath>
</defs>
</svg>
